<svg width="24" height="18" viewBox="0 0 24 18" fill="none" xmlns="http://www.w3.org/2000/svg">
<path fill-rule="evenodd" clip-rule="evenodd" d="M0.545471 1.36355C0.545471 0.660639 1.11529 0.0908203 1.8182 0.0908203H22.1818C22.8848 0.0908203 23.4546 0.660639 23.4546 1.36355C23.4546 2.06645 22.8848 2.63628 22.1818 2.63628H1.8182C1.11529 2.63628 0.545471 2.06645 0.545471 1.36355ZM0.545471 16.6363C0.545471 15.9333 1.11529 15.3635 1.8182 15.3635H22.1818C22.8848 15.3635 23.4546 15.9333 23.4546 16.6363C23.4546 17.3392 22.8848 17.909 22.1818 17.909H1.8182C1.11529 17.909 0.545471 17.3392 0.545471 16.6363ZM1.8182 7.72718C1.11529 7.72718 0.545471 8.29701 0.545471 8.99991C0.545471 9.70281 1.11529 10.2726 1.8182 10.2726H22.1818C22.8848 10.2726 23.4546 9.70281 23.4546 8.99991C23.4546 8.29701 22.8848 7.72718 22.1818 7.72718H1.8182Z" fill="white"/>
</svg>
